<?xml version="1.0" encoding="UTF-8"?>
<svg id="outputsvg" xmlns="http://www.w3.org/2000/svg" xmlns:xlink="http://www.w3.org/1999/xlink" viewBox="0 0 589.11 437.2">
  <defs>
    <style>
      .cls-1 { fill: url(#linear-gradient-3); }
      .cls-2 { fill: url(#linear-gradient-2); }
      .cls-3 { fill: url(#linear-gradient); }
      .cls-4 { letter-spacing: .5em; }
      .cls-5 { letter-spacing: .49em; }
      .cls-6 { letter-spacing: .5em; }
      .cls-7 { letter-spacing: .5em; }
      .cls-8 { font-family: Gotham-Medium, Gotham, 'Montserrat', sans-serif; font-size: 33.57px; font-weight: 500; }
    </style>
    <linearGradient id="linear-gradient" x1="180.22" y1="55" x2="409.75" y2="284.53" gradientUnits="userSpaceOnUse">
      <stop offset="0" stop-color="#84612f"/>
      <stop offset=".39" stop-color="#e8ddbf"/>
      <stop offset="1" stop-color="#a1844c"/>
    </linearGradient>
    <linearGradient id="linear-gradient-2" x1="225.62" y1="-7.03" x2="428.48" y2="195.83" xlink:href="#linear-gradient"/>
    <linearGradient id="linear-gradient-3" x1="165.35" y1="62.32" x2="544.11" y2="62.32" gradientUnits="userSpaceOnUse">
      <stop offset="0" stop-color="#84612f"/>
      <stop offset=".49" stop-color="#e8ddbf"/>
      <stop offset="1" stop-color="#a1844c"/>
    </linearGradient>
  </defs>
  <g>
    <path class="cls-3" d="M585.63,89.59c-9.65,19.15-19.23,30.73-35.44,43.01-21.62,16.22-54.21,28.18-88.42,32.43-10.5,1.31-45.87,1.24-59.07-.08-15.75-1.54-32.9-3.78-33.44-4.25-.23-.23,3.17-.46,7.57-.46,28.73,0,66.72-9.34,93.2-22.86,9.58-4.94,24.17-13.98,24.17-15.06,0-.39-2.78.69-6.25,2.39-20.23,10.19-44.09,17.37-67.88,20.46-30.5,3.86-64.71,3.01-113.9-3.01-50.42-6.18-58.15-6.95-83.32-8.19-22.16-1.08-48.26.54-69.19,4.32-23.4,4.17-51.74,14.59-71.43,26.1-31.97,18.76-53.9,39-69.65,64.25-5.56,8.88-12.59,23.4-12.59,26.02,0,.39,1.62-1.54,3.63-4.25,2.01-2.63,7.03-8.34,11.04-12.51,29.11-30.27,71.66-45.1,125.09-43.47,25.1.77,51.2,4.79,93.05,14.52,29.34,6.8,58.61,12.05,77.22,13.9,12.66,1.24,39.69,1.24,51.35,0,10.42-1.08,29.5-4.79,35.44-6.87l4.17-1.39-18.07.31c-13.98.23-20.15,0-27.34-.93-22.32-3.09-46.79-10.12-82.24-23.63-44.79-17.07-61.08-22.78-76.06-26.56-25.33-6.33-51.66-8.03-73.98-4.71-3.94.54-7.18.93-7.34.77-.15-.08,3.01-1,6.95-1.85,21.16-4.94,41.93-6.8,61.7-5.56,24.17,1.54,36.76,3.71,83.78,14.36,73.13,16.6,97.06,20.08,138.14,20,40.15-.08,68.49-5.25,101.16-18.53,40-16.37,67.03-42.62,79.07-76.99,3.32-9.42,2.93-9.88-1.16-1.7Z"/>
    <path class="cls-2" d="M49.73,173.37c.23,0,3.86-2.7,8.03-6.02,18.84-14.98,35.75-24.02,60.85-32.43,25.1-8.42,45.02-11.66,75.6-12.28,29.65-.62,44.25.54,98.22,7.49,44.25,5.79,59.84,7.1,82.86,7.18,27.8,0,43.63-1.62,68.26-7.18,29.88-6.64,53.98-16.45,75.83-30.73,32.12-21.08,54.67-49.19,65.1-80.93,2.93-9.03,5.1-17.91,4.56-18.46-.15-.23-1.62,3.01-3.24,7.18-14.44,36.68-45.48,65.25-86.41,79.61-27.57,9.58-52.51,12.97-90.11,12.2-25.56-.54-39.07-1.93-86.1-8.65-65.25-9.42-112.35-7.95-157.76,4.71-37.53,10.5-74.83,32.12-99.38,57.53-8.19,8.57-17.84,20.77-16.29,20.77Z"/>
    <path class="cls-1" d="M169.34,82.87c2.16-.85,7.64-2.7,12.12-4.09,11.35-3.55,27.1-6.95,39.38-8.65,8.42-1.08,15.75-1.39,38.22-1.39,31.43,0,33.13.15,75.29,6.18,15.91,2.32,34.67,4.86,41.7,5.71,63.94,7.8,113.43-.39,150.81-24.86,6.33-4.17,17.91-14.29,17.22-15.06-.23-.15-3.47,1.62-7.18,4.09-9.11,5.87-23.4,12.74-33.82,16.14-16.45,5.41-30.66,7.72-54.28,9.11-24.4,1.31-46.49-.08-95.13-5.95-30.04-3.63-45.71-5.02-62.93-5.56-45.87-1.31-86.72,6.18-119.69,21.85-6.64,3.09-7.8,4.79-1.7,2.47Z"/>
  </g>
  <g id="_05dpDW" data-name="05dpDW">
    <g>
      <g>
        <path d="M258.05,278.29h40.1c8.71.69,17.55,1.11,25.39,5.33,14.65,7.88,13.96,26.06-.53,33.46l-8.87,3.33c10.21,1.17,23.76,6.48,24.99,18.25,1.87,17.85-13.42,25.63-28.94,26.73h-52.14v-87.1ZM276.11,318.19h23.61c6.91,0,14.28-6.92,15.6-13.55,2.11-10.59-4.3-18.44-14.43-20.56-5.16-1.08-18.4-1.36-23.69-.74-.46.05-.81.04-1.09.49v34.36ZM276.11,360c.81-.02,1.56.27,2.37.33,7.25.49,22.35.66,29-1.45,14.22-4.51,17.44-24.76,4.66-32.18-2.21-1.29-8.07-3.43-10.51-3.43h-25.51v36.74Z"/>
        <path d="M142.06,278.29h42c14.42.69,32.15,5.01,34.65,21.74,1.95,13.04-6.61,21.8-18.09,25.85-1.69.6-3.63.88-5.2,1.47-.34.13-.54-.16-.43.5l22.17,28.2c2.8,3.25,5.95,5.38,10.33,5.83l.14,3.5h-17.59c-4.27,0-9.75-4.09-12.36-7.28l-20.91-28.82h-16.32v36.1h-18.38v-87.09ZM160.44,324.53c13.2-.6,30.17,3.43,37.56-10.76,6.48-12.44-.14-26.66-13.78-29.63-7.5-1.63-16.14-.55-23.78-.46v40.85Z"/>
        <path d="M497.47,278.29l64.81,62.71v-62.71h6.5l.16,87.09h-6.18c-18.4-18.13-36.88-36.23-55.47-54.15-3.8-3.66-8.11-8.76-12.19-11.89-.32-.24-.4-.61-.95-.47v66.51h-6.97v-87.09h10.3Z"/>
        <path d="M38.75,278.29v56.86c.24,14.14,7.61,23.81,21.8,26.02,17.91,2.79,34.41-5.14,35.26-24.75v-58.13s6.8,0,6.8,0l.49,1.09c-.67,18.1.84,36.78,0,54.82s-9.96,29.75-28.78,32.67c-16.89,2.62-42.42-.61-50.83-17.74-4.13-8.41-3.1-15.92-3.09-24.75,0-15.15.12-30.31-.2-45.45l.34-.65h18.22Z"/>
        <path d="M456.43,365.38h-18.86l-12.35-23.78-45.77.06-11.92,23.72h-7.76l43.77-86.58c.23-.49.6-.47,1.06-.53,2.44-.28,5.43.24,7.94.02l.76.51,43.13,86.58ZM422.52,335.93l-20.28-40.22-19.65,40.22h39.93Z"/>
      </g>
      <text class="cls-8" transform="translate(92.61 427.97)"><tspan class="cls-4" x="0" y="0">HAIR </tspan><tspan class="cls-5" x="180.96" y="0">S</tspan><tspan class="cls-6" x="218.73" y="0">TUDI</tspan><tspan class="cls-7" x="369.94" y="0">O</tspan><tspan class="cls-4" x="415.1" y="0">S</tspan></text>
    </g>
  </g>
</svg>
